<svg xmlns="http://www.w3.org/2000/svg" viewBox="0 0 512 512">
  <defs>
    <linearGradient id="bg" x1="0%" y1="0%" x2="100%" y2="100%">
      <stop offset="0%" stop-color="#fff7e8" />
      <stop offset="100%" stop-color="#ffd3c3" />
    </linearGradient>
    <linearGradient id="body" x1="0%" y1="0%" x2="0%" y2="100%">
      <stop offset="0%" stop-color="#ff9b6b" />
      <stop offset="100%" stop-color="#f15a29" />
    </linearGradient>
    <linearGradient id="leaf" x1="0%" y1="0%" x2="100%" y2="100%">
      <stop offset="0%" stop-color="#3fd29d" />
      <stop offset="100%" stop-color="#1ea57d" />
    </linearGradient>
  </defs>
  <rect width="512" height="512" rx="120" fill="url(#bg)" />
  <circle cx="256" cy="270" r="124" fill="url(#body)" />
  <ellipse cx="216" cy="238" rx="12" ry="15" fill="#fff9f2" />
  <ellipse cx="296" cy="238" rx="12" ry="15" fill="#fff9f2" />
  <path
    d="M200 292c18 28 43 42 56 42s38-14 56-42"
    fill="none"
    stroke="#fff9f2"
    stroke-linecap="round"
    stroke-width="18"
  />
  <path
    d="M256 126c0-34 22-63 56-76-3 36-18 62-46 80"
    fill="url(#leaf)"
  />
  <path
    d="M255 126c-3-29-18-52-49-69 0 35 15 61 42 78"
    fill="#7ce4ba"
  />
  <path
    d="M255 126c4 56 37 92 105 109"
    fill="none"
    stroke="#213026"
    stroke-linecap="round"
    stroke-width="12"
    opacity="0.12"
  />
  <path
    d="M142 390c30-24 70-38 114-38s84 14 114 38"
    fill="none"
    stroke="#213026"
    stroke-linecap="round"
    stroke-width="18"
    opacity="0.12"
  />
</svg>
