<svg xmlns="http://www.w3.org/2000/svg" viewBox="0 0 512 512">
  <defs>
    <linearGradient id="bg" x1="0%" y1="0%" x2="100%" y2="100%">
      <stop offset="0%" stop-color="#fff8ee" />
      <stop offset="100%" stop-color="#efd6b5" />
    </linearGradient>
    <linearGradient id="accent" x1="0%" y1="0%" x2="0%" y2="100%">
      <stop offset="0%" stop-color="#d66c3d" />
      <stop offset="100%" stop-color="#b74f22" />
    </linearGradient>
  </defs>
  <rect width="512" height="512" rx="120" fill="url(#bg)" />
  <circle cx="256" cy="116" r="44" fill="#1d2a22" />
  <path
    d="M222 172c16 14 52 14 68 0l24 54c10 22 6 48-11 66l-9 10 39 116c6 19-4 39-23 45-19 7-39-4-45-23l-29-88-29 88c-6 19-26 30-45 23-19-6-29-26-23-45l39-116-9-10c-17-18-21-44-11-66l24-54z"
    fill="#1d2a22"
  />
  <path
    d="M188 196c22 21 44 33 68 33s46-12 68-33"
    fill="none"
    stroke="url(#accent)"
    stroke-linecap="round"
    stroke-width="18"
  />
  <path
    d="M156 356c28 22 61 33 100 33s72-11 100-33"
    fill="none"
    stroke="url(#accent)"
    stroke-linecap="round"
    stroke-width="24"
  />
</svg>
